<?xml version="1.0" encoding="UTF-8" standalone="no"?>
<!-- Created with Inkscape (http://www.inkscape.org/) -->

<svg
   version="1.1"
   id="svg4607"
   width="880"
   height="880"
   viewBox="0 0 880 880"
   sodipodi:docname="mole-in-hole-publicdomainvectors.org.svg"
   inkscape:version="1.2 (dc2aedaf03, 2022-05-15)"
   xmlns:inkscape="http://www.inkscape.org/namespaces/inkscape"
   xmlns:sodipodi="http://sodipodi.sourceforge.net/DTD/sodipodi-0.dtd"
   xmlns="http://www.w3.org/2000/svg"
   xmlns:svg="http://www.w3.org/2000/svg">
  <defs
     id="defs4611">
    <clipPath
       clipPathUnits="userSpaceOnUse"
       id="clipPath4623">
      <path
         d="M 0,660 H 660 V 0 H 0 Z"
         id="path4621" />
    </clipPath>
  </defs>
  <sodipodi:namedview
     id="namedview4609"
     pagecolor="#ffffff"
     bordercolor="#000000"
     borderopacity="0.25"
     inkscape:showpageshadow="2"
     inkscape:pageopacity="0.0"
     inkscape:pagecheckerboard="0"
     inkscape:deskcolor="#d1d1d1"
     showgrid="false"
     inkscape:zoom="0.95113636"
     inkscape:cx="440.52569"
     inkscape:cy="440.52569"
     inkscape:window-width="1920"
     inkscape:window-height="1017"
     inkscape:window-x="-8"
     inkscape:window-y="-8"
     inkscape:window-maximized="1"
     inkscape:current-layer="g4615">
    <inkscape:page
       x="0"
       y="0"
       id="page4613"
       width="880"
       height="880" />
  </sodipodi:namedview>
  <g
     id="g4615"
     inkscape:groupmode="layer"
     inkscape:label="Page 1"
     transform="matrix(1.3333333,0,0,-1.3333333,0,880)">
    <g
       id="g4617">
      <g
         id="g4619"
         clip-path="url(#clipPath4623)">
        <g
           id="g4625"
           transform="translate(495.2012,366.083)">
          <path
             d="M 0,0 C -4.71,24.579 3.371,50.936 23.559,68.616 43.746,86.296 70.938,90.831 94.683,82.92 99.393,58.34 91.311,31.982 71.124,14.304 50.936,-3.376 23.744,-7.911 0,0"
             style="fill:#94ab13;fill-opacity:1;fill-rule:evenodd;stroke:none"
             id="path4627" />
        </g>
        <g
           id="g4629"
           transform="translate(495.2012,366.083)">
          <path
             d="M 0,0 C -4.71,24.579 3.371,50.936 23.559,68.616 43.746,86.296 70.938,90.831 94.683,82.92 94.515,63.91 83.157,41.293 62.972,23.613 42.784,5.934 18.867,-2.342 0,0"
             style="fill:#a7bf1c;fill-opacity:1;fill-rule:evenodd;stroke:none"
             id="path4631" />
        </g>
        <g
           id="g4633"
           transform="translate(493.7852,434.7563)">
          <path
             d="M 0,0 C 9.222,17.566 9.149,39.422 -2.104,57.475 -13.357,75.529 -32.946,85.219 -52.78,84.674 -62.004,67.107 -61.931,45.253 -50.677,27.199 -39.423,9.145 -19.834,-0.545 0,0"
             style="fill:#94ab13;fill-opacity:1;fill-rule:evenodd;stroke:none"
             id="path4635" />
        </g>
        <g
           id="g4637"
           transform="translate(493.7852,434.7563)">
          <path
             d="M 0,0 C 9.222,17.566 9.149,39.422 -2.104,57.475 -13.357,75.529 -32.946,85.219 -52.78,84.674 -57.023,70.211 -53.604,50.442 -42.352,32.389 -31.098,14.335 -14.854,2.56 0,0"
             style="fill:#a7bf1c;fill-opacity:1;fill-rule:evenodd;stroke:none"
             id="path4639" />
        </g>
        <g
           id="g4641"
           transform="translate(482.1826,443.3652)">
          <path
             d="M 0,0 C -10.882,20.728 -10.796,46.516 2.482,67.817 15.761,89.119 38.875,100.553 62.277,99.91 73.159,79.182 73.073,53.395 59.795,32.093 46.517,10.791 23.402,-0.643 0,0"
             style="fill:#94ab13;fill-opacity:1;fill-rule:evenodd;stroke:none"
             id="path4643" />
        </g>
        <g
           id="g4645"
           transform="translate(482.1826,443.3652)">
          <path
             d="M 0,0 C -10.882,20.728 -10.796,46.516 2.482,67.817 15.761,89.119 38.875,100.553 62.277,99.91 67.283,82.846 63.249,59.519 49.971,38.216 36.692,16.914 17.524,3.02 0,0"
             style="fill:#a7bf1c;fill-opacity:1;fill-rule:evenodd;stroke:none"
             id="path4647" />
        </g>
        <path
           d="M 481.648,194.791 H 506.41 V 451.002 H 481.648 Z"
           style="fill:#94ab13;fill-opacity:1;fill-rule:evenodd;stroke:none"
           id="path4649" />
        <path
           d="m 481.648,198.395 h 17.638 v 252.608 h -17.638 z"
           style="fill:#a7bf1c;fill-opacity:1;fill-rule:evenodd;stroke:none"
           id="path4651" />
        <g
           id="g4653"
           transform="translate(494.9033,311.7773)">
          <path
             d="M 0,0 C 4.71,24.579 -3.37,50.937 -23.558,68.616 -43.746,86.297 -70.938,90.83 -94.681,82.92 -99.392,58.34 -91.311,31.983 -71.124,14.303 -50.936,-3.377 -23.744,-7.91 0,0"
             style="fill:#94ab13;fill-opacity:1;fill-rule:evenodd;stroke:none"
             id="path4655" />
        </g>
        <g
           id="g4657"
           transform="translate(494.9033,311.7773)">
          <path
             d="M 0,0 C 4.71,24.579 -3.37,50.937 -23.558,68.616 -43.746,86.297 -70.938,90.83 -94.681,82.92 -94.515,63.909 -83.157,41.293 -62.97,23.613 -42.782,5.934 -18.866,-2.341 0,0"
             style="fill:#a7bf1c;fill-opacity:1;fill-rule:evenodd;stroke:none"
             id="path4659" />
        </g>
        <g
           id="g4661"
           transform="translate(495.2012,260.9697)">
          <path
             d="M 0,0 C -4.71,24.58 3.371,50.937 23.559,68.617 43.746,86.296 70.938,90.83 94.683,82.921 99.393,58.341 91.311,31.983 71.124,14.304 50.936,-3.377 23.744,-7.911 0,0"
             style="fill:#94ab13;fill-opacity:1;fill-rule:evenodd;stroke:none"
             id="path4663" />
        </g>
        <g
           id="g4665"
           transform="translate(495.2012,260.9697)">
          <path
             d="M 0,0 C -4.71,24.58 3.371,50.937 23.559,68.617 43.746,86.296 70.938,90.83 94.683,82.921 94.515,63.91 83.157,41.293 62.972,23.613 42.784,5.934 18.867,-2.341 0,0"
             style="fill:#a7bf1c;fill-opacity:1;fill-rule:evenodd;stroke:none"
             id="path4667" />
        </g>
        <g
           id="g4669"
           transform="translate(373.917,462.0986)">
          <path
             d="M 0,0 C -4.709,24.58 3.371,50.937 23.559,68.617 43.746,86.297 70.939,90.831 94.683,82.921 99.393,58.341 91.313,31.983 71.124,14.304 50.936,-3.376 23.744,-7.91 0,0"
             style="fill:#94ab13;fill-opacity:1;fill-rule:evenodd;stroke:none"
             id="path4671" />
        </g>
        <g
           id="g4673"
           transform="translate(373.917,462.0986)">
          <path
             d="M 0,0 C -4.709,24.58 3.371,50.937 23.559,68.617 43.746,86.297 70.939,90.831 94.683,82.921 94.515,63.911 83.157,41.294 62.972,23.614 42.784,5.935 18.867,-2.341 0,0"
             style="fill:#a7bf1c;fill-opacity:1;fill-rule:evenodd;stroke:none"
             id="path4675" />
        </g>
        <g
           id="g4677"
           transform="translate(372.501,530.772)">
          <path
             d="M 0,0 C 9.222,17.567 9.149,39.422 -2.105,57.476 -13.357,75.53 -32.946,85.22 -52.78,84.675 -62.004,67.107 -61.93,45.252 -50.677,27.199 -39.423,9.146 -19.834,-0.544 0,0"
             style="fill:#94ab13;fill-opacity:1;fill-rule:evenodd;stroke:none"
             id="path4679" />
        </g>
        <g
           id="g4681"
           transform="translate(372.501,530.772)">
          <path
             d="M 0,0 C 9.222,17.567 9.149,39.422 -2.105,57.476 -13.357,75.53 -32.946,85.22 -52.78,84.675 -57.024,70.212 -53.605,50.443 -42.351,32.39 -31.098,14.335 -14.853,2.56 0,0"
             style="fill:#a7bf1c;fill-opacity:1;fill-rule:evenodd;stroke:none"
             id="path4683" />
        </g>
        <g
           id="g4685"
           transform="translate(360.8984,539.3809)">
          <path
             d="M 0,0 C -10.882,20.728 -10.796,46.516 2.483,67.818 15.761,89.12 38.875,100.554 62.277,99.91 73.159,79.183 73.073,53.396 59.795,32.094 46.517,10.791 23.402,-0.642 0,0"
             style="fill:#94ab13;fill-opacity:1;fill-rule:evenodd;stroke:none"
             id="path4687" />
        </g>
        <g
           id="g4689"
           transform="translate(360.8984,539.3809)">
          <path
             d="M 0,0 C -10.882,20.728 -10.796,46.516 2.483,67.818 15.761,89.12 38.875,100.554 62.277,99.91 67.283,82.847 63.25,59.52 49.971,38.217 36.692,16.915 17.525,3.021 0,0"
             style="fill:#a7bf1c;fill-opacity:1;fill-rule:evenodd;stroke:none"
             id="path4691" />
        </g>
        <path
           d="m 360.364,290.807 h 24.763 v 256.212 h -24.763 z"
           style="fill:#94ab13;fill-opacity:1;fill-rule:evenodd;stroke:none"
           id="path4693" />
        <path
           d="m 360.364,294.41 h 17.638 v 252.609 h -17.638 z"
           style="fill:#a7bf1c;fill-opacity:1;fill-rule:evenodd;stroke:none"
           id="path4695" />
        <g
           id="g4697"
           transform="translate(373.6191,407.793)">
          <path
             d="M 0,0 C 4.71,24.581 -3.37,50.938 -23.558,68.618 -43.746,86.297 -70.938,90.831 -94.682,82.92 -99.392,58.341 -91.311,31.984 -71.124,14.304 -50.935,-3.376 -23.744,-7.909 0,0"
             style="fill:#94ab13;fill-opacity:1;fill-rule:evenodd;stroke:none"
             id="path4699" />
        </g>
        <g
           id="g4701"
           transform="translate(373.6191,407.793)">
          <path
             d="M 0,0 C 4.71,24.581 -3.37,50.938 -23.558,68.618 -43.746,86.297 -70.938,90.831 -94.682,82.92 -94.515,63.91 -83.157,41.294 -62.97,23.614 -42.781,5.934 -18.866,-2.341 0,0"
             style="fill:#a7bf1c;fill-opacity:1;fill-rule:evenodd;stroke:none"
             id="path4703" />
        </g>
        <g
           id="g4705"
           transform="translate(373.917,356.9863)">
          <path
             d="M 0,0 C -4.709,24.58 3.371,50.937 23.559,68.616 43.746,86.296 70.939,90.831 94.683,82.919 99.393,58.341 91.313,31.983 71.124,14.304 50.936,-3.377 23.744,-7.91 0,0"
             style="fill:#94ab13;fill-opacity:1;fill-rule:evenodd;stroke:none"
             id="path4707" />
        </g>
        <g
           id="g4709"
           transform="translate(373.917,356.9863)">
          <path
             d="M 0,0 C -4.709,24.58 3.371,50.937 23.559,68.616 43.746,86.296 70.939,90.831 94.683,82.919 94.515,63.91 83.157,41.293 62.972,23.613 42.784,5.935 18.867,-2.342 0,0"
             style="fill:#a7bf1c;fill-opacity:1;fill-rule:evenodd;stroke:none"
             id="path4711" />
        </g>
        <g
           id="g4713"
           transform="translate(171.9805,411.0742)">
          <path
             d="M 0,0 C -4.71,24.58 3.371,50.936 23.559,68.616 43.745,86.296 70.938,90.831 94.682,82.92 99.392,58.341 91.313,31.983 71.125,14.304 50.938,-3.376 23.744,-7.91 0,0"
             style="fill:#94ab13;fill-opacity:1;fill-rule:evenodd;stroke:none"
             id="path4715" />
        </g>
        <g
           id="g4717"
           transform="translate(171.9805,411.0742)">
          <path
             d="M 0,0 C -4.71,24.58 3.371,50.936 23.559,68.616 43.745,86.296 70.938,90.831 94.682,82.92 94.514,63.91 83.158,41.293 62.971,23.614 42.783,5.935 18.867,-2.341 0,0"
             style="fill:#a7bf1c;fill-opacity:1;fill-rule:evenodd;stroke:none"
             id="path4719" />
        </g>
        <g
           id="g4721"
           transform="translate(170.5635,479.7476)">
          <path
             d="M 0,0 C 9.223,17.566 9.149,39.422 -2.103,57.475 -13.356,75.529 -32.947,85.219 -52.78,84.675 -62.003,67.107 -61.93,45.252 -50.677,27.199 -39.423,9.145 -19.833,-0.544 0,0"
             style="fill:#94ab13;fill-opacity:1;fill-rule:evenodd;stroke:none"
             id="path4723" />
        </g>
        <g
           id="g4725"
           transform="translate(170.5635,479.7476)">
          <path
             d="M 0,0 C 9.223,17.566 9.149,39.422 -2.103,57.475 -13.356,75.529 -32.947,85.219 -52.78,84.675 -57.022,70.212 -53.604,50.443 -42.35,32.389 -31.097,14.334 -14.853,2.56 0,0"
             style="fill:#a7bf1c;fill-opacity:1;fill-rule:evenodd;stroke:none"
             id="path4727" />
        </g>
        <g
           id="g4729"
           transform="translate(158.9629,488.3564)">
          <path
             d="M 0,0 C -10.883,20.728 -10.797,46.516 2.481,67.818 15.759,89.12 38.874,100.553 62.277,99.91 73.157,79.183 73.071,53.395 59.793,32.093 46.516,10.791 23.401,-0.642 0,0"
             style="fill:#94ab13;fill-opacity:1;fill-rule:evenodd;stroke:none"
             id="path4731" />
        </g>
        <g
           id="g4733"
           transform="translate(158.9629,488.3564)">
          <path
             d="M 0,0 C -10.883,20.728 -10.797,46.516 2.481,67.818 15.759,89.12 38.874,100.553 62.277,99.91 67.281,82.846 63.247,59.52 49.969,38.217 36.691,16.914 17.524,3.022 0,0"
             style="fill:#a7bf1c;fill-opacity:1;fill-rule:evenodd;stroke:none"
             id="path4735" />
        </g>
        <path
           d="m 158.427,239.782 h 24.762 v 256.212 h -24.762 z"
           style="fill:#94ab13;fill-opacity:1;fill-rule:evenodd;stroke:none"
           id="path4737" />
        <path
           d="m 158.427,243.386 h 17.638 v 252.609 h -17.638 z"
           style="fill:#a7bf1c;fill-opacity:1;fill-rule:evenodd;stroke:none"
           id="path4739" />
        <g
           id="g4741"
           transform="translate(171.6826,356.7695)">
          <path
             d="M 0,0 C 4.71,24.578 -3.37,50.936 -23.558,68.616 -43.745,86.295 -70.938,90.83 -94.682,82.919 -99.392,58.34 -91.311,31.983 -71.124,14.303 -50.936,-3.377 -23.744,-7.911 0,0"
             style="fill:#94ab13;fill-opacity:1;fill-rule:evenodd;stroke:none"
             id="path4743" />
        </g>
        <g
           id="g4745"
           transform="translate(171.6826,356.7695)">
          <path
             d="M 0,0 C 4.71,24.578 -3.37,50.936 -23.558,68.616 -43.745,86.295 -70.938,90.83 -94.682,82.919 -94.515,63.909 -83.157,41.293 -62.97,23.613 -42.783,5.934 -18.866,-2.342 0,0"
             style="fill:#a7bf1c;fill-opacity:1;fill-rule:evenodd;stroke:none"
             id="path4747" />
        </g>
        <g
           id="g4749"
           transform="translate(171.9805,305.9609)">
          <path
             d="M 0,0 C -4.71,24.58 3.371,50.938 23.559,68.617 43.745,86.297 70.938,90.831 94.682,82.921 99.392,58.341 91.313,31.983 71.125,14.304 50.938,-3.376 23.744,-7.91 0,0"
             style="fill:#94ab13;fill-opacity:1;fill-rule:evenodd;stroke:none"
             id="path4751" />
        </g>
        <g
           id="g4753"
           transform="translate(171.9805,305.9609)">
          <path
             d="M 0,0 C -4.71,24.58 3.371,50.938 23.559,68.617 43.745,86.297 70.938,90.831 94.682,82.921 94.514,63.91 83.158,41.293 62.971,23.614 42.783,5.935 18.867,-2.341 0,0"
             style="fill:#a7bf1c;fill-opacity:1;fill-rule:evenodd;stroke:none"
             id="path4755" />
        </g>
        <g
           id="g4757"
           transform="translate(392.251,329.957)">
          <path
             d="m 0,0 v 0 c -13.934,-10.833 -16.472,-31.096 -5.639,-45.03 l 25.278,-32.516 c 7.674,-9.876 22.034,-11.674 31.91,-3.998 l 7.381,5.738 c 13.934,10.83 16.473,31.094 5.64,45.03 L 45.031,-5.641 C 34.198,8.293 13.934,10.832 0,0"
             style="fill:#2b1806;fill-opacity:1;fill-rule:evenodd;stroke:none"
             id="path4759" />
        </g>
        <g
           id="g4761"
           transform="translate(428.5225,256.6084)">
          <path
             d="m 0,0 c 6.377,-6.069 2.563,-17.509 5.307,-25.874 1.827,-5.568 -3.314,-7.923 -7.407,-2.96 -5.755,6.981 -14.607,14.263 -13.951,23.287 C -15.64,0.099 -4.1,3.902 0,0"
             style="fill:#e6e6e6;fill-opacity:1;fill-rule:evenodd;stroke:none"
             id="path4763" />
        </g>
        <g
           id="g4765"
           transform="translate(447.1045,274.2207)">
          <path
             d="m 0,0 c 8.587,-6.222 5.869,-20.487 10.488,-30.035 3.075,-6.354 -2.682,-9.988 -8.366,-4.718 -7.992,7.409 -19.727,14.68 -20.392,25.557 C -18.685,-2.391 -5.52,4 0,0"
             style="fill:#e6e6e6;fill-opacity:1;fill-rule:evenodd;stroke:none"
             id="path4767" />
        </g>
        <g
           id="g4769"
           transform="translate(450.1064,282.4902)">
          <path
             d="m 0,0 c 4.191,-6.062 14.147,-4.395 20.709,-7.75 4.369,-2.234 6.981,1.711 3.408,5.741 C 19.092,3.658 14.22,11.925 6.671,12.554 1.949,12.946 -2.694,3.897 0,0"
             style="fill:#e6e6e6;fill-opacity:1;fill-rule:evenodd;stroke:none"
             id="path4771" />
        </g>
        <g
           id="g4773"
           transform="translate(343.6768,487.2798)">
          <path
             d="M 0,0 V 0 C 46.474,0 84.497,-38.023 84.497,-84.497 V -261.66 H -84.496 V -84.497 C -84.496,-38.023 -46.474,0 0,0"
             style="fill:#472b10;fill-opacity:1;fill-rule:evenodd;stroke:none"
             id="path4775" />
        </g>
        <g
           id="g4777"
           transform="translate(406.375,225.6201)">
          <path
             d="m 0,0 h -147.194 v 177.163 c 0,43.203 32.86,79.095 74.82,83.936 -31.201,-27.838 -50.771,-67.837 -50.771,-112.29 C -123.145,75.819 -70.398,14.838 0,0"
             style="fill:#2b1806;fill-opacity:1;fill-rule:evenodd;stroke:none"
             id="path4779" />
        </g>
        <g
           id="g4781"
           transform="translate(392.1455,471.8877)">
          <path
             d="m 0,0 c 21.749,-15.328 36.028,-40.628 36.028,-69.104 v -83.112 c -4.417,-0.773 -8.963,-1.18 -13.601,-1.18 -43.259,0 -78.329,35.07 -78.329,78.331 0,35.464 23.573,65.42 55.902,75.065"
             style="fill:#6e4b2a;fill-opacity:1;fill-rule:evenodd;stroke:none"
             id="path4783" />
        </g>
        <g
           id="g4785"
           transform="translate(137.7534,227.4658)">
          <path
             d="m 0,0 68.813,50.579 c 12.144,8.925 27.227,10.212 40.706,3.473 l 21.416,-10.709 c 7.178,-3.588 11.917,-9.551 13.792,-17.354 1.875,-7.802 0.365,-15.268 -4.397,-21.727 L 93.137,-59.747 C 80.705,-76.608 57.226,-80.701 39.822,-69.042 L 0.936,-42.988 c -7.336,4.916 -11.449,12.424 -11.64,21.251 C -10.896,-12.91 -7.115,-5.231 0,0"
             style="fill:#996633;fill-opacity:1;fill-rule:evenodd;stroke:none"
             id="path4787" />
        </g>
        <g
           id="g4789"
           transform="translate(139.043,225.4023)">
          <path
             d="m 0,0 c -4.294,-3.154 -6.455,-7.544 -6.339,-12.872 0.116,-5.338 2.459,-9.611 6.894,-12.584 L 39.44,-51.51 c 12.642,-8.47 29.702,-5.496 38.733,6.753 l 47.192,64.007 c 2.884,3.912 3.741,8.145 2.605,12.868 -1.137,4.728 -3.821,8.103 -8.168,10.278 L 98.384,53.105 c -9.873,4.937 -20.675,4.014 -29.571,-2.524 z"
             style="fill:#ab7641;fill-opacity:1;fill-rule:evenodd;stroke:none"
             id="path4791" />
        </g>
        <g
           id="g4793"
           transform="translate(149.5103,223.8682)">
          <path
             d="m 0,0 c -2.349,-1.726 -3.532,-4.129 -3.468,-7.044 0.063,-2.92 1.344,-5.26 3.772,-6.885 L 21.58,-28.185 c 6.916,-4.635 16.251,-3.006 21.192,3.696 l 25.822,35.022 c 1.577,2.138 2.046,4.454 1.425,7.04 -0.622,2.586 -2.09,4.434 -4.469,5.623 l -11.719,5.86 c -5.402,2.701 -11.313,2.196 -16.18,-1.382 z"
             style="fill:#c9945f;fill-opacity:1;fill-rule:evenodd;stroke:none"
             id="path4795" />
        </g>
        <g
           id="g4797"
           transform="translate(414.4492,428.0396)">
          <path
             d="M 0,0 C 5.011,0 9.097,5.279 9.097,11.75 9.097,18.221 5.011,23.499 0,23.499 -5.01,23.499 -9.096,18.221 -9.096,11.75 -9.096,5.279 -5.01,0 0,0"
             style="fill:#000000;fill-opacity:1;fill-rule:evenodd;stroke:none"
             id="path4799" />
        </g>
        <g
           id="g4801"
           transform="translate(417.3555,439.9155)">
          <path
             d="M 0,0 C 1.636,0 2.97,1.845 2.97,4.106 2.97,6.367 1.636,8.212 0,8.212 -1.635,8.212 -2.969,6.367 -2.969,4.106 -2.969,1.845 -1.635,0 0,0"
             style="fill:#ffffff;fill-opacity:1;fill-rule:evenodd;stroke:none"
             id="path4803" />
        </g>
        <g
           id="g4805"
           transform="translate(419.124,433.9771)">
          <path
             d="M 0,0 C 0.87,0 1.579,0.767 1.579,1.706 1.579,2.646 0.87,3.412 0,3.412 -0.87,3.412 -1.579,2.646 -1.579,1.706 -1.579,0.767 -0.87,0 0,0"
             style="fill:#ffffff;fill-opacity:1;fill-rule:evenodd;stroke:none"
             id="path4807" />
        </g>
        <g
           id="g4809"
           transform="translate(236.6992,180.5625)">
          <path
             d="m 0,0 28.303,60.722 c 5.103,10.949 15.853,17.299 27.904,16.484 L 84.252,75.311 C 99.646,74.27 111.597,61.703 111.86,46.274 l 1.043,-61 c 0.138,-8.129 -2.737,-15.177 -8.524,-20.888 -5.789,-5.71 -12.874,-8.492 -21.001,-8.243 l -57.442,1.753 C 15.679,-41.79 7.008,-36.773 1.627,-28.036 -3.754,-19.299 -4.333,-9.298 0,0"
             style="fill:#996633;fill-opacity:1;fill-rule:evenodd;stroke:none"
             id="path4811" />
        </g>
        <g
           id="g4813"
           transform="translate(241.3555,182.6074)">
          <path
             d="m 0,0 c -2.804,-6.013 -2.441,-12.245 1.037,-17.895 3.491,-5.666 8.86,-8.776 15.515,-8.978 l 57.444,-1.754 c 5.177,-0.157 9.462,1.523 13.149,5.162 3.698,3.648 5.426,7.889 5.337,13.08 l -1.041,61 C 91.272,60.482 83.665,68.484 73.82,69.148 L 45.773,71.044 C 38.167,71.557 31.522,67.632 28.301,60.723 Z"
             style="fill:#ab7641;fill-opacity:1;fill-rule:evenodd;stroke:none"
             id="path4815" />
        </g>
        <g
           id="g4817"
           transform="translate(250.0273,187.1113)">
          <path
             d="m 0,0 c -1.408,-3.025 -1.227,-6.158 0.523,-9 1.757,-2.853 4.456,-4.415 7.804,-4.517 l 28.894,-0.881 c 2.605,-0.08 4.76,0.766 6.616,2.595 1.858,1.836 2.729,3.968 2.684,6.58 L 45.997,25.46 c -0.084,4.965 -3.912,8.988 -8.864,9.322 l -14.106,0.953 c -3.826,0.26 -7.169,-1.715 -8.791,-5.192 z"
             style="fill:#c9945f;fill-opacity:1;fill-rule:evenodd;stroke:none"
             id="path4819" />
        </g>
        <g
           id="g4821"
           transform="translate(342.1982,147.5508)">
          <path
             d="m 0,0 0.539,78.661 c 0.115,16.854 13.705,30.565 30.557,30.828 l 12.802,0.199 c 13.334,0.208 24.842,-7.168 30.221,-19.367 l 31.763,-72.032 c 4.002,-9.074 3.619,-18.569 -1.1,-27.294 -4.718,-8.722 -12.457,-14.239 -22.242,-15.856 l -44.77,-7.402 c -9.782,-1.615 -18.849,0.909 -26.388,7.347 C 3.843,-18.474 -0.067,-9.913 0,0"
             style="fill:#996633;fill-opacity:1;fill-rule:evenodd;stroke:none"
             id="path4823" />
        </g>
        <g
           id="g4825"
           transform="translate(347.8555,154.0488)">
          <path
             d="m 0,0 c -0.046,-6.755 2.492,-12.311 7.628,-16.699 5.136,-4.387 11.019,-6.026 17.683,-4.924 l 44.771,7.399 c 6.518,1.079 11.425,4.578 14.568,10.387 3.134,5.797 3.378,11.846 0.72,17.875 L 53.607,86.07 c -3.64,8.256 -11.23,13.12 -20.253,12.98 L 20.551,98.849 C 9.52,98.678 0.615,89.694 0.538,78.661 Z"
             style="fill:#ab7641;fill-opacity:1;fill-rule:evenodd;stroke:none"
             id="path4827" />
        </g>
        <g
           id="g4829"
           transform="translate(352.2607,168.709)">
          <path
             d="m 0,0 c -0.026,-3.847 1.42,-7.013 4.345,-9.512 2.925,-2.499 6.277,-3.431 10.072,-2.802 l 25.503,4.213 c 3.713,0.615 6.507,2.607 8.297,5.916 1.787,3.302 1.925,6.748 0.411,10.183 L 30.536,49.028 C 28.462,53.729 24.139,56.501 19,56.421 L 11.706,56.306 C 5.422,56.208 0.351,51.091 0.306,44.807 Z"
             style="fill:#c9945f;fill-opacity:1;fill-rule:evenodd;stroke:none"
             id="path4831" />
        </g>
        <g
           id="g4833"
           transform="translate(441.8906,171.1074)">
          <path
             d="m 0,0 -27.239,51.134 c -7.875,14.782 -4.526,32.547 8.192,43.446 l 7.939,6.806 c 11.765,10.084 28.631,10.389 40.754,0.74 L 76.187,65.073 C 85.18,57.914 89.835,47.887 89.501,36.398 89.167,24.908 83.936,15.169 74.545,8.544 L 46.682,-11.105 C 38.908,-16.589 30.09,-18.286 20.836,-16.085 11.581,-13.884 4.472,-8.396 0,0"
             style="fill:#996633;fill-opacity:1;fill-rule:evenodd;stroke:none"
             id="path4835" />
        </g>
        <g
           id="g4837"
           transform="translate(446.292,182.7109)">
          <path
             d="m 0,0 c 3.024,-5.68 7.598,-9.21 13.858,-10.699 6.262,-1.489 11.937,-0.397 17.195,3.313 l 27.863,19.65 c 6.634,4.68 10.188,11.297 10.423,19.41 0.235,8.085 -2.951,14.946 -9.279,19.985 L 13.518,88.711 c -8.101,6.45 -19.247,6.25 -27.11,-0.491 l -7.94,-6.806 C -30.417,73.798 -32.743,61.465 -27.24,51.136 Z"
             style="fill:#ab7641;fill-opacity:1;fill-rule:evenodd;stroke:none"
             id="path4839" />
        </g>
        <g
           id="g4841"
           transform="translate(438.3115,206.5889)">
          <path
             d="m 0,0 c 1.466,-2.754 3.684,-4.465 6.719,-5.187 3.033,-0.72 5.785,-0.191 8.333,1.606 l 13.506,9.524 c 3.215,2.269 4.938,5.475 5.051,9.409 0.116,3.919 -1.429,7.246 -4.496,9.687 L 6.552,43.001 c -3.926,3.127 -9.328,3.028 -13.14,-0.239 l -3.85,-3.3 c -4.306,-3.692 -5.433,-9.669 -2.766,-14.675 z"
             style="fill:#c9945f;fill-opacity:1;fill-rule:evenodd;stroke:none"
             id="path4843" />
        </g>
        <g
           id="g4845"
           transform="translate(196.0078,107.0107)">
          <path
             d="m 0,0 c 17.257,0 31.332,7.491 31.332,16.677 0,9.184 -14.075,16.676 -31.332,16.676 -17.257,0 -31.332,-7.492 -31.332,-16.676 C -31.332,7.491 -17.257,0 0,0"
             style="fill:#996633;fill-opacity:1;fill-rule:evenodd;stroke:none"
             id="path4847" />
        </g>
        <g
           id="g4849"
           transform="translate(317.5439,97.9141)">
          <path
             d="m 0,0 c 9.88,0 17.94,5.675 17.94,12.634 0,6.958 -8.06,12.634 -17.94,12.634 -9.882,0 -17.94,-5.676 -17.94,-12.634 C -17.94,5.675 -9.882,0 0,0"
             style="fill:#996633;fill-opacity:1;fill-rule:evenodd;stroke:none"
             id="path4851" />
        </g>
        <g
           id="g4853"
           transform="translate(492.3945,115.6006)">
          <path
             d="m 0,0 c 14.891,0 27.036,5.791 27.036,12.888 0,7.096 -12.145,12.886 -27.036,12.886 -14.891,0 -27.035,-5.79 -27.035,-12.886 C -27.035,5.791 -14.891,0 0,0"
             style="fill:#996633;fill-opacity:1;fill-rule:evenodd;stroke:none"
             id="path4855" />
        </g>
        <g
           id="g4857"
           transform="translate(490.4551,197.4707)">
          <path
             d="m 0,0 27.608,24.425 c 7.981,7.062 19.469,7.62 28.098,1.365 l 5.386,-3.905 C 69.073,16.098 71.76,5.706 67.583,-3.225 L 51.547,-37.509 c -3.099,-6.624 -8.615,-10.99 -15.773,-12.483 -7.157,-1.494 -13.96,0.301 -19.449,5.132 L 0.041,-30.53 c -4.543,3.999 -6.9,9.204 -6.908,15.256 C -6.876,-9.223 -4.531,-4.011 0,0"
             style="fill:#996633;fill-opacity:1;fill-rule:evenodd;stroke:none"
             id="path4859" />
        </g>
        <g
           id="g4861"
           transform="translate(498.2891,196.4668)">
          <path
             d="m 0,0 c -3.068,-2.714 -4.575,-6.066 -4.57,-10.163 0.005,-4.093 1.522,-7.442 4.596,-10.147 l 16.285,-14.331 c 3.876,-3.414 8.498,-4.632 13.554,-3.576 5.035,1.051 8.811,4.038 10.99,8.698 L 56.892,4.768 c 2.792,5.967 1.017,12.834 -4.317,16.703 l -5.388,3.905 C 41.16,29.745 33.184,29.36 27.606,24.425 Z"
             style="fill:#ab7641;fill-opacity:1;fill-rule:evenodd;stroke:none"
             id="path4863" />
        </g>
        <g
           id="g4865"
           transform="translate(511.8818,204.9385)">
          <path
             d="m 0,0 c -1.487,-1.315 -2.218,-2.939 -2.216,-4.925 0.003,-1.984 0.739,-3.607 2.228,-4.919 l 7.894,-6.946 c 1.88,-1.655 4.119,-2.246 6.571,-1.734 2.44,0.509 4.27,1.959 5.328,4.215 l 7.772,16.621 c 1.354,2.893 0.493,6.222 -2.093,8.096 l -2.612,1.894 c -2.921,2.119 -6.787,1.931 -9.49,-0.461 z"
             style="fill:#c9945f;fill-opacity:1;fill-rule:evenodd;stroke:none"
             id="path4867" />
        </g>
        <g
           id="g4869"
           transform="translate(395.0605,221.8662)">
          <path
             d="m 0,0 1.088,27.938 c 0.315,8.078 6.033,14.667 13.985,16.116 l 4.967,0.904 c 7.355,1.341 14.46,-2.635 17.164,-9.606 L 47.586,8.583 C 49.593,3.411 49.093,-1.9 46.158,-6.606 c -2.933,-4.708 -7.485,-7.496 -13.01,-7.971 L 16.753,-15.986 C 12.18,-16.382 8.091,-14.943 4.77,-11.775 1.448,-8.605 -0.179,-4.588 0,0"
             style="fill:#996633;fill-opacity:1;fill-rule:evenodd;stroke:none"
             id="path4871" />
        </g>
        <g
           id="g4873"
           transform="translate(399.7178,225.6318)">
          <path
             d="m 0,0 c -0.122,-3.104 0.926,-5.687 3.173,-7.832 2.247,-2.143 4.878,-3.07 7.972,-2.804 l 16.394,1.412 c 3.904,0.335 6.995,2.227 9.067,5.553 2.065,3.314 2.408,6.949 0.995,10.588 L 27.219,33.683 c -1.807,4.661 -6.501,7.289 -11.418,6.392 L 10.836,39.169 C 5.279,38.159 1.308,33.583 1.089,27.941 Z"
             style="fill:#ab7641;fill-opacity:1;fill-rule:evenodd;stroke:none"
             id="path4875" />
        </g>
        <g
           id="g4877"
           transform="translate(402.2021,237.5244)">
          <path
             d="m 0,0 c -0.06,-1.505 0.448,-2.757 1.538,-3.796 1.089,-1.038 2.363,-1.489 3.863,-1.357 l 7.948,0.682 c 1.892,0.163 3.39,1.081 4.394,2.694 1.002,1.605 1.168,3.365 0.484,5.13 l -5.035,12.974 c -0.875,2.259 -3.151,3.533 -5.533,3.1 L 5.252,18.987 C 2.558,18.495 0.633,16.279 0.526,13.544 Z"
             style="fill:#c9945f;fill-opacity:1;fill-rule:evenodd;stroke:none"
             id="path4879" />
        </g>
        <g
           id="g4881"
           transform="translate(307.5371,231.4863)">
          <path
             d="m 0,0 14.197,30.457 c 2.56,5.491 7.951,8.678 13.997,8.268 L 42.261,37.776 C 49.982,37.253 55.978,30.949 56.11,23.211 l 0.522,-30.599 c 0.07,-4.078 -1.372,-7.612 -4.275,-10.477 -2.904,-2.865 -6.458,-4.259 -10.534,-4.136 l -28.814,0.88 C 7.865,-20.963 3.516,-18.446 0.816,-14.063 -1.882,-9.683 -2.173,-4.666 0,0"
             style="fill:#996633;fill-opacity:1;fill-rule:evenodd;stroke:none"
             id="path4883" />
        </g>
        <g
           id="g4885"
           transform="translate(309.873,232.5127)">
          <path
             d="m 0,0 c -1.406,-3.018 -1.225,-6.143 0.521,-8.977 1.752,-2.844 4.444,-4.402 7.782,-4.504 l 28.814,-0.88 c 2.596,-0.079 4.746,0.764 6.595,2.59 1.854,1.829 2.723,3.957 2.678,6.559 l -0.523,30.6 c -0.084,4.949 -3.9,8.962 -8.839,9.296 l -14.068,0.95 c -3.814,0.257 -7.147,-1.71 -8.765,-5.178 z"
             style="fill:#ab7641;fill-opacity:1;fill-rule:evenodd;stroke:none"
             id="path4887" />
        </g>
        <g
           id="g4889"
           transform="translate(314.2227,234.7695)">
          <path
             d="m 0,0 c -0.707,-1.517 -0.615,-3.09 0.264,-4.514 0.879,-1.429 2.235,-2.215 3.913,-2.265 l 14.494,-0.443 c 1.307,-0.039 2.387,0.385 3.318,1.303 0.933,0.92 1.368,1.99 1.346,3.3 l -0.264,15.39 c -0.042,2.49 -1.961,4.508 -4.444,4.676 l -7.077,0.479 c -1.918,0.13 -3.596,-0.86 -4.408,-2.605 z"
             style="fill:#c9945f;fill-opacity:1;fill-rule:evenodd;stroke:none"
             id="path4891" />
        </g>
        <g
           id="g4893"
           transform="translate(194.751,168.3555)">
          <path
             d="m 0,0 10.2,36.97 c 1.839,6.664 6.814,10.531 12.91,10.036 l 14.193,-1.154 c 7.791,-0.634 14.611,-8.285 15.759,-17.678 l 4.539,-37.142 c 0.605,-4.948 -0.374,-9.238 -2.9,-12.716 -2.528,-3.477 -5.899,-5.17 -9.992,-5.018 l -28.93,1.067 C 10.614,-25.444 5.934,-22.389 2.661,-17.07 -0.613,-11.751 -1.563,-5.661 0,0"
             style="fill:#996633;fill-opacity:1;fill-rule:evenodd;stroke:none"
             id="path4895" />
        </g>
        <g
           id="g4897"
           transform="translate(196.9512,169.6006)">
          <path
             d="m 0,0 c -1.01,-3.662 -0.419,-7.455 1.698,-10.896 2.125,-3.451 5.022,-5.342 8.374,-5.465 l 28.93,-1.07 c 2.605,-0.095 4.645,0.928 6.254,3.144 1.615,2.221 2.204,4.802 1.816,7.964 l -4.537,37.14 c -0.733,6.006 -5.076,10.877 -10.059,11.282 l -14.192,1.155 c -3.85,0.312 -6.926,-2.077 -8.085,-6.284 z"
             style="fill:#ab7641;fill-opacity:1;fill-rule:evenodd;stroke:none"
             id="path4899" />
        </g>
        <g
           id="g4901"
           transform="translate(201.0049,172.3428)">
          <path
             d="M 0,0 C -0.507,-1.841 -0.21,-3.751 0.854,-5.48 1.923,-7.217 3.38,-8.168 5.067,-8.231 l 14.551,-0.536 c 1.311,-0.049 2.337,0.466 3.147,1.58 0.812,1.119 1.109,2.416 0.915,4.007 l -2.284,18.681 c -0.37,3.02 -2.554,5.472 -5.06,5.675 l -7.14,0.579 C 7.263,21.913 5.714,20.712 5.13,18.595 Z"
             style="fill:#c9945f;fill-opacity:1;fill-rule:evenodd;stroke:none"
             id="path4903" />
        </g>
        <g
           id="g4905"
           transform="translate(382.4844,437.0581)">
          <path
             d="m 0,0 h 68.948 c 14.073,0 25.554,-11.48 25.554,-25.554 v -0.593 c 0,-29.642 -24.179,-53.819 -53.82,-53.819 l -40.682,0 z"
             style="fill:#6e4b2a;fill-opacity:1;fill-rule:evenodd;stroke:none"
             id="path4907" />
        </g>
        <g
           id="g4909"
           transform="translate(456.2041,436.9326)">
          <path
             d="m 0,0 c 10.146,-2.007 18.223,-9.893 20.509,-19.936 0.656,-2.883 -0.962,-5.767 -3.764,-6.71 -1.833,-0.616 -3.797,-0.95 -5.837,-0.95 -10.106,0 -18.299,8.193 -18.299,18.299 0,1.859 0.279,3.653 0.793,5.344 C -5.735,-1.126 -2.899,0.574 0,0"
             style="fill:#ff6666;fill-opacity:1;fill-rule:evenodd;stroke:none"
             id="path4911" />
        </g>
        <g
           id="g4913"
           transform="translate(376.8633,427.269)">
          <path
             d="M 0,0 C 5.01,0 9.096,5.279 9.096,11.75 9.096,18.221 5.01,23.499 0,23.499 -5.011,23.499 -9.097,18.221 -9.097,11.75 -9.097,5.279 -5.011,0 0,0"
             style="fill:#000000;fill-opacity:1;fill-rule:evenodd;stroke:none"
             id="path4915" />
        </g>
        <g
           id="g4917"
           transform="translate(379.7686,439.145)">
          <path
             d="M 0,0 C 1.635,0 2.97,1.844 2.97,4.106 2.97,6.367 1.635,8.212 0,8.212 -1.635,8.212 -2.969,6.367 -2.969,4.106 -2.969,1.844 -1.635,0 0,0"
             style="fill:#ffffff;fill-opacity:1;fill-rule:evenodd;stroke:none"
             id="path4919" />
        </g>
        <g
           id="g4921"
           transform="translate(381.5371,433.2065)">
          <path
             d="M 0,0 C 0.87,0 1.581,0.767 1.581,1.706 1.581,2.645 0.87,3.412 0,3.412 -0.87,3.412 -1.579,2.645 -1.579,1.706 -1.579,0.767 -0.87,0 0,0"
             style="fill:#ffffff;fill-opacity:1;fill-rule:evenodd;stroke:none"
             id="path4923" />
        </g>
        <g
           id="g4925"
           transform="translate(307.7236,319.8496)">
          <path
             d="m 0,0 v 0 c 13.935,-10.832 16.473,-31.095 5.641,-45.029 l -25.278,-32.517 c -7.675,-9.875 -22.037,-11.673 -31.91,-3.997 l -7.381,5.737 c -13.935,10.833 -16.473,31.095 -5.641,45.03 l 19.54,25.135 C -34.198,8.295 -13.936,10.833 0,0"
             style="fill:#2b1806;fill-opacity:1;fill-rule:evenodd;stroke:none"
             id="path4927" />
        </g>
        <g
           id="g4929"
           transform="translate(271.4521,246.502)">
          <path
             d="m 0,0 c -6.376,-6.07 -2.563,-17.51 -5.307,-25.875 -1.826,-5.568 3.314,-7.921 7.407,-2.957 5.757,6.979 14.609,14.26 13.951,23.285 C 15.641,0.099 4.102,3.901 0,0"
             style="fill:#e6e6e6;fill-opacity:1;fill-rule:evenodd;stroke:none"
             id="path4931" />
        </g>
        <g
           id="g4933"
           transform="translate(252.8701,264.1133)">
          <path
             d="m 0,0 c -8.585,-6.222 -5.869,-20.487 -10.487,-30.033 -3.075,-6.355 2.683,-9.988 8.367,-4.72 7.991,7.409 19.726,14.681 20.389,25.559 C 18.685,-2.391 5.52,4.001 0,0"
             style="fill:#e6e6e6;fill-opacity:1;fill-rule:evenodd;stroke:none"
             id="path4935" />
        </g>
        <g
           id="g4937"
           transform="translate(243.0498,282.0938)">
          <path
             d="m 0,0 c -6.755,-2.948 -7.031,-13.039 -11.585,-18.836 -3.031,-3.855 0.339,-7.179 4.981,-4.446 6.526,3.845 15.576,7.036 17.642,14.323 C 12.331,-4.399 4.343,1.896 0,0"
             style="fill:#e6e6e6;fill-opacity:1;fill-rule:evenodd;stroke:none"
             id="path4939" />
        </g>
      </g>
    </g>
  </g>
</svg>
